<svg xmlns="http://www.w3.org/2000/svg" width="960" height="540" viewBox="0 0 960 540" role="img" aria-label="Mall system architecture">
  <defs>
    <linearGradient id="bg" x1="0" y1="0" x2="1" y2="1">
      <stop offset="0%" stop-color="#0f2744"/>
      <stop offset="100%" stop-color="#163a5f"/>
    </linearGradient>
    <filter id="shadow" x="-10%" y="-10%" width="120%" height="120%">
      <feDropShadow dx="0" dy="4" stdDeviation="6" flood-color="#000" flood-opacity="0.25"/>
    </filter>
  </defs>
  <rect width="960" height="540" fill="url(#bg)"/>
  <text x="48" y="48" fill="#e8f1ff" font-family="Segoe UI, Arial, sans-serif" font-size="28" font-weight="700">Mall Architecture</text>
  <text x="48" y="78" fill="#9db4d0" font-family="Segoe UI, Arial, sans-serif" font-size="14">Vue3 Frontends À Spring Boot 3.5 À Redis / RabbitMQ / MySQL / ES</text>

  <g filter="url(#shadow)">
    <rect x="48" y="120" width="200" height="90" rx="10" fill="#1f4b78"/>
    <text x="68" y="155" fill="#ffffff" font-family="Segoe UI, Arial, sans-serif" font-size="16" font-weight="600">Admin Vue3</text>
    <text x="68" y="180" fill="#c5d8ef" font-family="Segoe UI, Arial, sans-serif" font-size="13">ð% / Ê@Mn</text>
  </g>
  <g filter="url(#shadow)">
    <rect x="48" y="240" width="200" height="90" rx="10" fill="#1f4b78"/>
    <text x="68" y="275" fill="#ffffff" font-family="Segoe UI, Arial, sans-serif" font-size="16" font-weight="600">Portal Vue3</text>
    <text x="68" y="300" fill="#c5d8ef" font-family="Segoe UI, Arial, sans-serif" font-size="13">F╬ / Ê@U</text>
  </g>

  <g filter="url(#shadow)">
    <rect x="320" y="120" width="220" height="90" rx="10" fill="#246b8f"/>
    <text x="340" y="155" fill="#ffffff" font-family="Segoe UI, Arial, sans-serif" font-size="16" font-weight="600">mall-admin</text>
    <text x="340" y="180" fill="#d4ecf8" font-family="Segoe UI, Arial, sans-serif" font-size="13">:8080 À X1H</text>
  </g>
  <g filter="url(#shadow)">
    <rect x="320" y="240" width="220" height="90" rx="10" fill="#246b8f"/>
    <text x="340" y="275" fill="#ffffff" font-family="Segoe UI, Arial, sans-serif" font-size="16" font-weight="600">mall-portal</text>
    <text x="340" y="300" fill="#d4ecf8" font-family="Segoe UI, Arial, sans-serif" font-size="13">:8085 À Ê@ / óU</text>
  </g>
  <g filter="url(#shadow)">
    <rect x="320" y="360" width="220" height="90" rx="10" fill="#246b8f"/>
    <text x="340" y="395" fill="#ffffff" font-family="Segoe UI, Arial, sans-serif" font-size="16" font-weight="600">mall-search</text>
    <text x="340" y="420" fill="#d4ecf8" font-family="Segoe UI, Arial, sans-serif" font-size="13">:8081 À ES └"</text>
  </g>

  <g filter="url(#shadow)">
    <rect x="620" y="110" width="290" height="340" rx="12" fill="#1a3f5c"/>
    <text x="640" y="145" fill="#ffffff" font-family="Segoe UI, Arial, sans-serif" font-size="16" font-weight="600">Middleware</text>
    <rect x="640" y="165" width="250" height="44" rx="8" fill="#2d6a4f"/>
    <text x="660" y="193" fill="#ffffff" font-family="Segoe UI, Arial, sans-serif" font-size="14">Redis À Lua äc / Ý╣X</text>
    <rect x="640" y="225" width="250" height="44" rx="8" fill="#9a3412"/>
    <text x="660" y="253" fill="#ffffff" font-family="Segoe UI, Arial, sans-serif" font-size="14">RabbitMQ À Ê@e + DLQ</text>
    <rect x="640" y="285" width="250" height="44" rx="8" fill="#1d4ed8"/>
    <text x="660" y="313" fill="#ffffff" font-family="Segoe UI, Arial, sans-serif" font-size="14">MySQL 8 À óU=ô / BI</text>
    <rect x="640" y="345" width="250" height="44" rx="8" fill="#6d28d9"/>
    <text x="660" y="373" fill="#ffffff" font-family="Segoe UI, Arial, sans-serif" font-size="14">Elasticsearch 8 À F┴"</text>
  </g>

  <path d="M248 165 H320" stroke="#8ecae6" stroke-width="2" marker-end="url(#arrow)"/>
  <path d="M248 285 H320" stroke="#8ecae6" stroke-width="2"/>
  <path d="M540 165 H620" stroke="#8ecae6" stroke-width="2"/>
  <path d="M540 285 H620" stroke="#8ecae6" stroke-width="2"/>
  <path d="M540 405 H620" stroke="#8ecae6" stroke-width="2"/>
</svg>
